# xmcd
#
# Track frame offsets:
#	150
#	38383
#	74565
#	112763
#	150964
#	195666
#	235797
#
# Disc length: 3693 seconds
#
# Revision: 2
# Processed by: cddbd v1.5.2PL0 Copyright (c) Steve Scherf et al.
# Submitted via: audiograbber 1.83.01
#
DISCID=480e6b07
DTITLE=Jonathan Goldman - ChakraDance
DYEAR=2004
DGENRE=New Age
TTITLE0=1st chakra - the gateway opens
TTITLE1=2nd chakra - celestial waters
TTITLE2=3rd chakra - sacred fire
TTITLE3=4th chakra - heart of compassion
TTITLE4=5th chakra - voice of tomorrow
TTITLE5=6th chakra - divine vision
TTITLE6=7th chakra - cosmic tantra
EXTD=
EXTT0=
EXTT1=
EXTT2=
EXTT3=
EXTT4=
EXTT5=
EXTT6=
PLAYORDER=
